<?xml version="1.0" standalone="no"?>
<!DOCTYPE svg PUBLIC "-//W3C//DTD SVG 20010904//EN"
 "http://www.w3.org/TR/2001/REC-SVG-20010904/DTD/svg10.dtd">
<svg version="1.0" xmlns="http://www.w3.org/2000/svg"
 width="1000.000000pt" height="1000.000000pt" viewBox="0 0 1000.000000 1000.000000"
 preserveAspectRatio="xMidYMid meet">
<metadata>
Created by potrace 1.14, written by Peter Selinger 2001-2017
</metadata>
<g transform="translate(0.000000,1000.000000) scale(0.100000,-0.100000)"
fill="#000000" stroke="none">
<path d="M4735 9544 c-1186 -76 -2250 -538 -3068 -1334 -1484 -1442 -1804
-3647 -788 -5420 941 -1640 2815 -2554 4741 -2309 1358 172 2572 913 3326
2029 1214 1797 958 4178 -612 5700 -769 745 -1748 1198 -2844 1315 -138 15
-627 27 -755 19z m-1280 -2648 c367 -45 686 -129 933 -246 l102 -49 -23 -53
c-93 -208 -321 -705 -327 -711 -4 -5 -31 3 -59 18 -165 83 -447 177 -648 214
-350 66 -700 52 -880 -36 -189 -93 -241 -280 -110 -400 81 -74 255 -129 712
-223 729 -150 973 -242 1216 -456 80 -71 114 -110 166 -191 83 -128 133 -359
118 -543 -46 -564 -522 -961 -1299 -1082 -189 -29 -636 -36 -873 -14 -308 30
-615 93 -874 181 -130 45 -406 172 -427 197 -7 10 39 113 172 385 101 205 185
376 189 379 3 4 39 -12 79 -33 316 -173 735 -290 1112 -312 412 -24 705 46
771 186 30 60 32 143 5 197 -59 123 -226 187 -810 307 -393 82 -703 168 -857
239 -228 106 -427 282 -512 455 -67 134 -85 223 -85 415 0 138 3 179 22 254
102 406 458 716 983 855 131 35 318 67 470 80 148 14 579 5 734 -13z m3944
-69 c273 -39 480 -97 670 -188 400 -190 648 -496 728 -897 26 -132 24 -394 -6
-531 -67 -312 -246 -570 -529 -760 -150 -101 -406 -205 -617 -251 -232 -50
-274 -53 -807 -57 l-508 -5 0 -479 0 -479 -575 0 -575 0 0 1828 c0 1006 3
1832 7 1836 4 4 478 5 1053 3 893 -3 1062 -6 1159 -20z"/>
<path d="M6330 5494 l0 -535 423 3 c397 4 427 5 502 26 211 58 346 178 390
347 17 67 20 227 4 294 -28 124 -129 251 -246 310 -149 75 -276 91 -735 91
l-338 0 0 -536z"/>
</g>
</svg>
